nColumns=28
nRows=73
DataType=double
version=3
OpenSimVersion=4.1
endheader
time	ground_force_1_vx	ground_force_1_vy	ground_force_1_vz	ground_force_1_px	ground_force_1_py	ground_force_1_pz	ground_force_1_mx	ground_force_1_my	ground_force_1_mz	ground_force_2_vx	ground_force_2_vy	ground_force_2_vz	ground_force_2_px	ground_force_2_py	ground_force_2_pz	ground_force_2_mx	ground_force_2_my	ground_force_2_mz	ground_force_3_vx	ground_force_3_vy	ground_force_3_vz	ground_force_3_px	ground_force_3_py	ground_force_3_pz	ground_force_3_mx	ground_force_3_my	ground_force_3_mz
3.37	-7.81731	515.389	-46.1242	-0.215943	0.006	-0.42679	0	-14.4289	0	-2.2066	459.894	40.1795	-0.217477	0.006	-0.889506	0	13.0767	0	0	0	0	0	0	0	0	0	0
3.38	-6.82723	512.648	-44.3737	-0.215439	0.006	-0.42688	0	-14.2614	0	-2.89549	460.339	39.2535	-0.216834	0.006	-0.889503	0	13.1291	0	0	0	0	0	0	0	0	0	0
3.39	-5.84704	509.841	-42.5562	-0.214972	0.006	-0.426983	0	-14.1105	0	-3.53026	460.45	38.3383	-0.216203	0.006	-0.88953	0	13.186	0	0	0	0	0	0	0	0	0	0
3.4	-4.90319	507.035	-40.7185	-0.214533	0.006	-0.427094	0	-13.978	0	-4.10118	460.219	37.4235	-0.215585	0.006	-0.889585	0	13.2456	0	0	0	0	0	0	0	0	0	0
3.41	-4.01662	504.29	-38.9099	-0.214112	0.006	-0.427205	0	-13.8648	0	-4.60566	459.659	36.4965	-0.214982	0.006	-0.889664	0	13.3067	0	0	0	0	0	0	0	0	0	0
3.42	-3.19961	501.659	-37.1748	-0.213702	0.006	-0.427309	0	-13.7708	0	-5.04468	458.811	35.5446	-0.214396	0.006	-0.889762	0	13.3683	0	0	0	0	0	0	0	0	0	0
3.43	-2.45602	499.191	-35.5466	-0.213295	0.006	-0.427403	0	-13.6955	0	-5.42125	457.734	34.5579	-0.213827	0.006	-0.889872	0	13.4304	0	0	0	0	0	0	0	0	0	0
3.44	-1.78409	496.924	-34.0445	-0.21289	0.006	-0.427484	0	-13.6383	0	-5.73999	456.499	33.5328	-0.213275	0.006	-0.889989	0	13.4927	0	0	0	0	0	0	0	0	0	0
3.45	-1.17942	494.884	-32.6721	-0.212481	0.006	-0.427554	0	-13.5981	0	-6.00632	455.177	32.4717	-0.212739	0.006	-0.890108	0	13.555	0	0	0	0	0	0	0	0	0	0
3.46	-0.638106	493.093	-31.4209	-0.212066	0.006	-0.427614	0	-13.5744	0	-6.22541	453.832	31.3826	-0.212217	0.006	-0.890226	0	13.6165	0	0	0	0	0	0	0	0	0	0
3.47	-0.158151	491.567	-30.2765	-0.211644	0.006	-0.42767	0	-13.5668	0	-6.40129	452.524	30.2778	-0.211707	0.006	-0.890339	0	13.6762	0	0	0	0	0	0	0	0	0	0
3.48	0.2595	490.324	-29.2232	-0.211214	0.006	-0.427725	0	-13.5747	0	-6.53671	451.305	29.1714	-0.211209	0.006	-0.890446	0	13.7333	0	0	0	0	0	0	0	0	0	0
3.49	0.610277	489.384	-28.2488	-0.210772	0.006	-0.427782	0	-13.5979	0	-6.6327	450.223	28.0763	-0.210725	0.006	-0.890545	0	13.7868	0	0	0	0	0	0	0	0	0	0
3.5	0.887307	488.766	-27.3444	-0.210318	0.006	-0.427844	0	-13.6356	0	-6.6887	449.32	27.0021	-0.210258	0.006	-0.890633	0	13.8365	0	0	0	0	0	0	0	0	0	0
3.51	1.08328	488.477	-26.504	-0.209849	0.006	-0.427913	0	-13.6871	0	-6.70266	448.634	25.9543	-0.209814	0.006	-0.890708	0	13.8823	0	0	0	0	0	0	0	0	0	0
3.52	1.19209	488.505	-25.7218	-0.209363	0.006	-0.427988	0	-13.7508	0	-6.67222	448.191	24.9364	-0.209398	0.006	-0.890768	0	13.9243	0	0	0	0	0	0	0	0	0	0
3.53	1.21025	488.816	-24.9906	-0.208857	0.006	-0.428068	0	-13.8247	0	-6.59686	448.011	23.9508	-0.209012	0.006	-0.890815	0	13.9627	0	0	0	0	0	0	0	0	0	0
3.54	1.13799	489.356	-24.2991	-0.208328	0.006	-0.428153	0	-13.9064	0	-6.47986	448.103	22.9997	-0.208658	0.006	-0.890847	0	13.998	0	0	0	0	0	0	0	0	0	0
3.55	0.978658	490.056	-23.6329	-0.207772	0.006	-0.428241	0	-13.9934	0	-6.3312	448.465	22.0877	-0.208334	0.006	-0.890868	0	14.0311	0	0	0	0	0	0	0	0	0	0
3.56	0.736525	490.827	-22.9774	-0.207185	0.006	-0.42833	0	-14.083	0	-6.16831	449.086	21.2223	-0.208035	0.006	-0.890878	0	14.0625	0	0	0	0	0	0	0	0	0	0
3.57	0.415168	491.575	-22.3199	-0.206559	0.006	-0.428415	0	-14.1729	0	-6.01413	449.948	20.4139	-0.207754	0.006	-0.890884	0	14.093	0	0	0	0	0	0	0	0	0	0
3.58	0.0158524	492.203	-21.652	-0.205886	0.006	-0.428493	0	-14.2607	0	-5.8937	451.037	19.6746	-0.207482	0.006	-0.890889	0	14.1234	0	0	0	0	0	0	0	0	0	0
3.59	-0.462185	492.632	-20.9697	-0.205159	0.006	-0.428558	0	-14.3447	0	-5.83098	452.351	19.0159	-0.207214	0.006	-0.890896	0	14.1546	0	0	0	0	0	0	0	0	0	0
3.6	-1.01889	492.82	-20.2691	-0.204372	0.006	-0.428608	0	-14.424	0	-5.84564	453.905	18.446	-0.206944	0.006	-0.89091	0	14.1884	0	0	0	0	0	0	0	0	0	0
3.61	-1.65097	492.775	-19.5459	-0.203528	0.006	-0.428642	0	-14.4986	0	-5.95012	455.723	17.968	-0.206675	0.006	-0.890929	0	14.2265	0	0	0	0	0	0	0	0	0	0
3.62	-2.35114	492.555	-18.7958	-0.202634	0.006	-0.428663	0	-14.5696	0	-6.14913	457.847	17.5796	-0.206409	0.006	-0.890955	0	14.2715	0	0	0	0	0	0	0	0	0	0
3.63	-3.10921	492.267	-18.0151	-0.201703	0.006	-0.428674	0	-14.639	0	-6.44032	460.337	17.2749	-0.206154	0.006	-0.890984	0	14.3262	0	0	0	0	0	0	0	0	0	0
3.64	-3.91368	492.055	-17.2001	-0.200755	0.006	-0.42868	0	-14.7097	0	-6.81607	463.27	17.0457	-0.20592	0.006	-0.891014	0	14.3936	0	0	0	0	0	0	0	0	0	0
3.65	-4.75334	492.089	-16.3463	-0.199814	0.006	-0.428689	0	-14.7854	0	-7.2665	466.729	16.883	-0.20572	0.006	-0.891039	0	14.4766	0	0	0	0	0	0	0	0	0	0
3.66	-5.61744	492.554	-15.4475	-0.198909	0.006	-0.428708	0	-14.8702	0	-7.78024	470.807	16.7779	-0.205567	0.006	-0.891056	0	14.5778	0	0	0	0	0	0	0	0	0	0
3.67	-6.49712	493.638	-14.4983	-0.19807	0.006	-0.428746	0	-14.9689	0	-8.34466	475.596	16.7217	-0.205473	0.006	-0.891058	0	14.6997	0	0	0	0	0	0	0	0	0	0
3.68	-7.39032	495.535	-13.499	-0.197326	0.006	-0.428809	0	-15.0864	0	-8.94812	481.189	16.7042	-0.205455	0.006	-0.891042	0	14.8447	0	0	0	0	0	0	0	0	0	0
3.69	-8.30489	498.433	-12.4586	-0.196703	0.006	-0.428903	0	-15.2271	0	-9.58203	487.668	16.7143	-0.205523	0.006	-0.891001	0	15.0146	0	0	0	0	0	0	0	0	0	0
3.7	-9.25681	502.506	-11.3935	-0.196226	0.006	-0.429033	0	-15.3951	0	-10.2424	495.1	16.7404	-0.205689	0.006	-0.89093	0	15.2108	0	0	0	0	0	0	0	0	0	0
3.71	-10.2639	507.901	-10.3248	-0.195915	0.006	-0.429201	0	-15.5933	0	-10.9292	503.534	16.7719	-0.205959	0.006	-0.890824	0	15.4342	0	0	0	0	0	0	0	0	0	0
3.72	-11.3379	514.723	-9.27228	-0.195782	0.006	-0.42941	0	-15.8232	0	-11.6435	512.998	16.7964	-0.206335	0.006	-0.89068	0	15.6847	0	0	0	0	0	0	0	0	0	0
3.73	-12.4797	523.011	-8.25219	-0.195838	0.006	-0.429659	0	-16.0841	0	-12.3845	523.496	16.7969	-0.206819	0.006	-0.890493	0	15.9617	0	0	0	0	0	0	0	0	0	0
3.74	-13.6784	532.727	-7.27541	-0.196082	0.006	-0.429947	0	-16.373	0	-13.1474	534.984	16.7513	-0.20741	0.006	-0.89026	0	16.2632	0	0	0	0	0	0	0	0	0	0
3.75	-14.9135	543.755	-6.34889	-0.196508	0.006	-0.430271	0	-16.685	0	-13.9208	547.352	16.6345	-0.208102	0.006	-0.889981	0	16.5852	0	0	0	0	0	0	0	0	0	0
3.76	-16.1594	555.902	-5.47682	-0.197105	0.006	-0.430627	0	-17.0131	0	-14.6872	560.407	16.4221	-0.208885	0.006	-0.889657	0	16.9208	0	0	0	0	0	0	0	0	0	0
3.77	-17.3888	568.911	-4.66104	-0.197854	0.006	-0.431011	0	-17.3491	0	-15.4213	573.876	16.0943	-0.209749	0.006	-0.88929	0	17.2609	0	0	0	0	0	0	0	0	0	0
3.78	-18.5742	582.467	-3.90242	-0.198735	0.006	-0.431418	0	-17.6834	0	-16.0894	587.435	15.636	-0.210682	0.006	-0.888885	0	17.5946	0	0	0	0	0	0	0	0	0	0
3.79	-19.6878	596.217	-3.20233	-0.199728	0.006	-0.431844	0	-18.0053	0	-16.6495	600.73	15.0373	-0.211673	0.006	-0.888447	0	17.9101	0	0	0	0	0	0	0	0	0	0
3.8	-20.6992	609.784	-2.56311	-0.200813	0.006	-0.432283	0	-18.3035	0	-17.0569	613.406	14.296	-0.212717	0.006	-0.887979	0	18.1958	0	0	0	0	0	0	0	0	0	0
3.81	-21.5734	622.794	-1.98762	-0.201977	0.006	-0.432733	0	-18.5665	0	-17.2685	625.116	13.4185	-0.213806	0.006	-0.887485	0	18.4407	0	0	0	0	0	0	0	0	0	0
3.82	-22.2729	634.887	-1.47801	-0.203206	0.006	-0.433193	0	-18.7832	0	-17.248	635.538	12.4216	-0.214934	0.006	-0.88697	0	18.6346	0	0	0	0	0	0	0	0	0	0
3.83	-22.7628	645.735	-1.03534	-0.204494	0.006	-0.433663	0	-18.9438	0	-16.9697	644.385	11.3325	-0.216096	0.006	-0.886439	0	18.7687	0	0	0	0	0	0	0	0	0	0
3.84	-23.0157	655.05	-0.661378	-0.205833	0.006	-0.434143	0	-19.0393	0	-16.4215	651.404	10.1877	-0.217287	0.006	-0.885895	0	18.8361	0	0	0	0	0	0	0	0	0	0
3.85	-23.0152	662.583	-0.361321	-0.207221	0.006	-0.434634	0	-19.0631	0	-15.6059	656.395	9.03025	-0.218504	0.006	-0.885345	0	18.8315	0	0	0	0	0	0	0	0	0	0
3.86	-22.7565	668.135	-0.144513	-0.208655	0.006	-0.435135	0	-19.0101	0	-14.5368	659.226	7.90452	-0.219744	0.006	-0.884792	0	18.7524	0	0	0	0	0	0	0	0	0	0
3.87	-22.2413	671.561	-0.0215123	-0.210135	0.006	-0.435647	0	-18.8778	0	-13.2325	659.846	6.84957	-0.22101	0.006	-0.88424	0	18.5984	0	0	0	0	0	0	0	0	0	0
3.88	-21.472	672.792	-0.00134292	-0.211662	0.006	-0.436168	0	-18.6662	0	-11.7151	658.284	5.89648	-0.222302	0.006	-0.883689	0	18.3713	0	0	0	0	0	0	0	0	0	0
3.89	-20.4491	671.844	-0.0906391	-0.213243	0.006	-0.4367	0	-18.3777	0	-10.0137	654.63	5.0695	-0.223626	0.006	-0.88314	0	18.0753	0	0	0	0	0	0	0	0	0	0
3.9	-19.1732	668.817	-0.29381	-0.214884	0.006	-0.437242	0	-18.0179	0	-8.16588	649.019	4.38825	-0.224985	0.006	-0.882593	0	17.7159	0	0	0	0	0	0	0	0	0	0
3.91	-17.6487	663.878	-0.614151	-0.216594	0.006	-0.437793	0	-17.5944	0	-6.21615	641.622	3.86822	-0.226382	0.006	-0.88205	0	17.3006	0	0	0	0	0	0	0	0	0	0
3.92	-15.8878	657.245	-1.05457	-0.218377	0.006	-0.438352	0	-17.1168	0	-4.21267	632.652	3.51916	-0.227819	0.006	-0.881511	0	16.8379	0	0	0	0	0	0	0	0	0	0
3.93	-13.9106	649.162	-1.61682	-0.22024	0.006	-0.438918	0	-16.5957	0	-2.20341	622.358	3.3441	-0.229298	0.006	-0.880976	0	16.3373	0	0	0	0	0	0	0	0	0	0
3.94	-11.742	639.881	-2.30013	-0.222183	0.006	-0.439487	0	-16.0421	0	-0.233181	611.021	3.33891	-0.230821	0.006	-0.880446	0	15.8087	0	0	0	0	0	0	0	0	0	0
3.95	-9.40874	629.656	-3.09913	-0.224209	0.006	-0.440056	0	-15.4667	0	1.65881	598.939	3.49279	-0.232387	0.006	-0.87992	0	15.2627	0	0	0	0	0	0	0	0	0	0
3.96	-6.93447	618.728	-4.00163	-0.226314	0.006	-0.440621	0	-14.8791	0	3.43833	586.404	3.79115	-0.233995	0.006	-0.879399	0	14.7095	0	0	0	0	0	0	0	0	0	0
3.97	-4.33874	607.316	-4.98828	-0.228496	0.006	-0.44118	0	-14.2878	0	5.07388	573.683	4.21894	-0.235643	0.006	-0.878881	0	14.1589	0	0	0	0	0	0	0	0	0	0
3.98	-1.63806	595.615	-6.03323	-0.230748	0.006	-0.44173	0	-13.6995	0	6.53692	561.005	4.76217	-0.237322	0.006	-0.87837	0	13.6195	0	0	0	0	0	0	0	0	0	0
3.99	1.15254	583.793	-7.10437	-0.233063	0.006	-0.44227	0	-13.1195	0	7.80382	548.559	5.40675	-0.239025	0.006	-0.877865	0	13.0986	0	0	0	0	0	0	0	0	0	0
4	4.01693	571.992	-8.16566	-0.23543	0.006	-0.442799	0	-12.5513	0	8.85903	536.5	6.13609	-0.240742	0.006	-0.87737	0	12.6022	0	0	0	0	0	0	0	0	0	0
4.01	6.93613	560.339	-9.1807	-0.237838	0.006	-0.443317	0	-11.997	0	9.69645	524.953	6.92976	-0.242459	0.006	-0.876884	0	12.1346	0	0	0	0	0	0	0	0	0	0
4.02	9.88794	548.939	-10.1164	-0.240273	0.006	-0.443825	0	-11.457	0	10.3189	514.019	7.76463	-0.244167	0.006	-0.876408	0	11.6989	0	0	0	0	0	0	0	0	0	0
4.03	12.8454	537.883	-10.9472	-0.242721	0.006	-0.444326	0	-10.9311	0	10.7368	503.778	8.6171	-0.245852	0.006	-0.875943	0	11.297	0	0	0	0	0	0	0	0	0	0
4.04	15.7744	527.254	-11.658	-0.245165	0.006	-0.444823	0	-10.4183	0	10.9656	494.282	9.46559	-0.247505	0.006	-0.875487	0	10.9292	0	0	0	0	0	0	0	0	0	0
4.05	18.632	517.125	-12.2443	-0.247588	0.006	-0.445318	0	-9.91748	0	11.0221	485.561	10.2925	-0.249116	0.006	-0.875042	0	10.5951	0	0	0	0	0	0	0	0	0	0
4.06	21.3667	507.569	-12.7111	-0.249971	0.006	-0.445814	0	-9.42802	0	10.9244	477.628	11.0849	-0.250674	0.006	-0.874607	0	10.2934	0	0	0	0	0	0	0	0	0	0
4.07	23.9201	498.659	-13.0719	-0.252295	0.006	-0.446311	0	-8.9498	0	10.6918	470.472	11.8333	-0.252172	0.006	-0.874182	0	10.0216	0	0	0	0	0	0	0	0	0	0
4.08	26.2319	490.476	-13.345	-0.254539	0.006	-0.446812	0	-8.48343	0	10.3459	464.062	12.5302	-0.253602	0.006	-0.873767	0	9.77679	0	0	0	0	0	0	0	0	0	0
4.09	28.2445	483.097	-13.5519	-0.256684	0.006	-0.447315	0	-8.03019	0	9.91202	458.345	13.1685	-0.254961	0.006	-0.873362	0	9.55526	0	0	0	0	0	0	0	0	0	0
